<?xml version="1.0" encoding="UTF-8"?>
<svg width="512" height="512" viewBox="0 0 512 512" fill="none" xmlns="http://www.w3.org/2000/svg">
  <rect width="512" height="512" rx="128" fill="#000000"/>
  <path d="M256 128C179.307 128 117.333 189.974 117.333 266.667C117.333 343.36 179.307 405.333 256 405.333C332.693 405.333 394.667 343.36 394.667 266.667C394.667 189.974 332.693 128 256 128ZM256 373.333C197.12 373.333 149.333 325.547 149.333 266.667C149.333 207.787 197.12 160 256 160C314.88 160 362.667 207.787 362.667 266.667C362.667 325.547 314.88 373.333 256 373.333Z" fill="white"/>
  <path d="M277.333 224H234.667V309.333H277.333V224Z" fill="white"/>
  <path d="M277.333 181.333H234.667V202.667H277.333V181.333Z" fill="white"/>
</svg> 